PathFileType	4	(X/Y/Z)	\\147.46.242.158\로컬 디스크 (e)\MOCAP Data\Iguana Capture\iguana\Project 2\Capture day 6 after broken\Session 2\Take05 good walk.trc
DataRate	CameraRate	NumFrames	NumMarkers	Units	OrigDataRate	OrigDataStartFrame	OrigNumFrames
120.0	120.0	8	23	mm	120.0	117	5093
Frame#	Time	ana:head1			ana:head2			ana:bone1			ana:bone2			ana:bone3			ana:tail1			ana:tail2			ana:tail3			ana:tail4			ana:Rforefoot1			ana:Rforefoot2			ana:Rforefoot3			ana:Lforefoot1			ana:Lforefoot2			ana:Lforefoot3			ana:RhindLeg1			ana:RhindLeg2			ana:RhindLeg3			ana:RhindLeg4			ana:LhindLeg1			ana:LhindLeg2			ana:LhindLeg3			ana:LhindLeg4			
		X1	Y1	Z1	X2	Y2	Z2	X3	Y3	Z3	X4	Y4	Z4	X5	Y5	Z5	X6	Y6	Z6	X7	Y7	Z7	X8	Y8	Z8	X9	Y9	Z9	X10	Y10	Z10	X11	Y11	Z11	X12	Y12	Z12	X13	Y13	Z13	X14	Y14	Z14	X15	Y15	Z15	X16	Y16	Z16	X17	Y17	Z17	X18	Y18	Z18	X19	Y19	Z19	X20	Y20	Z20	X21	Y21	Z21	X22	Y22	Z22	X23	Y23	Z23	

4116	34.292	-443.71951	-56.65407	53.55338	-437.85291	-47.67376	53.15792	-434.95447	-28.38983	45.43258	-436.72440	-1.41373	42.98406	-429.27826	34.19729	36.36634	-413.51541	62.60033	29.63871	-406.25391	94.90115	21.67751	-400.95670	139.40994	12.68422	-400.59033	172.80421	9.42793	-444.20139	-36.31987	29.86214	-454.43057	-43.84018	21.56419	-453.92221	-60.59459	12.38933	-420.26660	-28.10000	29.89560	-411.55243	-16.70814	24.85092	-413.69229	-21.67197	10.61060	-436.47266	40.71099	28.58350	-448.11115	50.97313	23.64293	-442.48196	66.47266	12.24490	-451.79446	58.93962	8.23841	-420.04007	28.15838	31.39025	-413.17838	12.25556	32.84706	-399.51056	15.01781	19.17728	-396.78647	2.17595	16.37791	
4117	34.300	-443.75754	-57.32114	53.44558	-437.90552	-48.33835	53.05223	-435.03864	-29.04790	45.34705	-436.93335	-2.09344	42.93597	-429.50287	33.52344	36.39647	-413.62921	61.89771	29.75552	-406.29144	94.20393	21.83797	-400.98337	138.70580	12.80421	-400.64499	172.10237	9.43851	-444.32935	-36.92864	29.59171	-454.47629	-44.31618	20.86296	-453.74118	-60.73637	11.24415	-420.33023	-28.99601	29.51991	-411.65417	-17.11308	24.91515	-413.59650	-22.02075	10.70463	-436.59171	40.09474	28.63352	-448.08484	50.53738	23.70518	-442.53055	66.24783	12.59040	-451.80533	58.85932	8.27946	-420.22922	27.43921	31.40989	-413.53549	11.35729	32.66451	-400.19919	13.51481	18.51082	-397.45370	0.75241	15.59545	
4118	34.308	-443.79010	-57.97144	53.36927	-437.94150	-48.98483	52.96478	-435.12991	-29.66740	45.30755	-437.13373	-2.75540	42.90436	-429.72302	32.86696	36.42949	-413.75232	61.21195	29.85567	-406.34726	93.52194	21.97500	-401.01682	138.01607	12.91171	-400.69125	171.41177	9.45026	-444.47424	-37.51064	29.36366	-454.65067	-44.74288	20.29748	-453.65308	-60.82661	10.28012	-420.40332	-29.89709	29.15431	-411.77704	-17.51770	24.97748	-413.49777	-22.37805	10.80091	-436.71332	39.49073	28.69161	-448.05969	50.10540	23.77791	-442.58960	66.02639	12.93476	-451.80997	58.78320	8.31439	-420.40601	26.72942	31.42095	-413.81409	10.53021	32.46253	-400.88037	12.22983	17.84469	-398.00864	-0.43819	14.82772	
4119	34.317	-443.81348	-58.59599	53.33536	-437.95764	-49.60426	52.90798	-435.22180	-30.24069	45.31991	-437.31277	-3.39229	42.89074	-429.92538	32.23626	36.46039	-413.87442	60.54854	29.92439	-406.41440	92.85909	22.07269	-401.05090	137.34552	12.99455	-400.72571	170.73672	9.46213	-444.62872	-38.06365	29.18920	-454.94324	-45.12469	19.88865	-453.64609	-60.87962	9.52032	-420.48227	-30.77969	28.82104	-411.91592	-17.92113	25.03438	-413.39606	-22.74412	10.89948	-436.82822	38.90383	28.75301	-448.02820	49.68103	23.86013	-442.64996	65.81071	13.26807	-451.80676	58.71432	8.34475	-420.56039	26.03322	31.41379	-414.01117	9.77249	32.23148	-401.52182	11.15710	17.17668	-398.45071	-1.41936	14.07868	
4120	34.325	-443.82452	-59.18954	53.35089	-437.95258	-50.19158	52.89131	-435.30652	-30.76637	45.38391	-437.45871	-4.00015	42.89481	-430.09796	31.63642	36.48407	-413.98663	59.91119	29.94985	-406.48660	92.21798	22.11868	-401.08054	136.69743	13.04263	-400.74594	170.08031	9.47310	-444.78494	-38.58775	29.07454	-455.33588	-45.46512	19.64393	-453.70303	-60.90690	8.97124	-420.56277	-31.62269	28.53935	-412.06342	-18.32434	25.08262	-413.29132	-23.11923	11.00041	-436.92715	38.33599	28.81235	-447.98322	49.26588	23.94990	-442.70200	65.60104	13.58197	-451.79547	58.65417	8.37333	-420.68311	25.35503	31.38033	-414.12628	9.08091	31.96395	-402.09753	10.28600	16.50687	-398.78653	-2.21389	13.35197	
4121	34.333	-443.82092	-59.75159	53.41793	-437.92700	-50.74644	52.91983	-435.37622	-31.24968	45.49306	-437.56192	-4.57896	42.91455	-430.23099	31.06843	36.49575	-414.08255	59.30140	29.92460	-406.55908	91.59970	22.10568	-401.10220	136.07318	13.04924	-400.75076	169.44431	9.48229	-444.93536	-39.08548	29.01999	-455.80420	-45.76695	19.55640	-453.80377	-60.91687	8.62280	-420.63983	-32.40945	28.32368	-412.21069	-18.73030	25.11957	-413.18350	-23.50364	11.10375	-437.00204	37.78596	28.86423	-447.91876	48.85892	24.04461	-442.73694	65.39522	13.87059	-451.77686	58.60236	8.40383	-420.76675	24.69885	31.31514	-414.16138	8.45061	31.65581	-402.58923	9.60215	15.83817	-399.02820	-2.84267	12.65168	
4122	34.342	-443.80161	-60.28667	53.53299	-437.88370	-51.27335	52.99336	-435.42389	-31.70210	45.63528	-437.61560	-5.13265	42.94650	-430.31802	30.52894	36.49159	-414.15878	58.71826	29.84648	-406.62897	91.00375	22.03225	-401.11438	135.47223	13.01191	-400.74069	168.82896	9.48901	-445.07343	-39.56170	29.01984	-456.31976	-46.03244	19.60550	-453.92706	-60.91518	8.45026	-420.70880	-33.12934	28.18224	-412.34854	-19.14395	25.14342	-413.07251	-23.89761	11.20954	-437.04654	37.24929	28.90392	-447.83026	48.45643	24.14132	-442.74799	65.18872	14.13136	-451.75296	58.55656	8.44039	-420.80652	24.06757	31.21617	-414.12061	7.87502	31.30697	-402.98666	9.08823	15.17650	-399.19116	-3.32427	11.98284	
4123	34.350	-443.76697	-60.80416	53.68723	-437.82770	-51.78131	53.10629	-435.44431	-32.13998	45.79429	-437.61664	-5.66865	42.98626	-430.35623	30.01059	36.46909	-414.21490	58.15851	29.71890	-406.69547	90.42802	21.90298	-401.11813	134.89224	12.93275	-400.71808	168.23317	9.49287	-445.19446	-40.02309	29.06312	-456.85202	-46.26342	19.75944	-454.05344	-60.90520	8.41778	-420.76569	-33.77872	28.11639	-412.46826	-19.57195	25.15324	-412.95837	-24.30140	11.31786	-437.05621	36.71885	28.92784	-447.71490	48.05226	24.23719	-442.73059	64.97503	14.36528	-451.72647	58.51268	8.48695	-420.80038	23.46238	31.08498	-414.00964	7.34592	30.92157	-403.28763	8.72482	14.53044	-399.29236	-3.67513	11.35168	
